PathFileType	4	(X/Y/Z)	./resultDataOpenSim/trcMotMarkerGrf/sub10/qtm-04-01.trc
DataRate	CameraRate	NumFrames	NumMarkers	Units	OrigDataRate	OrigDataStartFrame	OrigNumFrames
250.000000	250.000000	8	24	m	250.000000	62	493
Frame#	Time	L.Toe.Tip			R.Toe.Tip			L.Ankle.Lat			R.Ankle.Lat			L.Ankle.Med			R.Ankle.Med			L.Heel			R.Heel			L.Knee.Lat			R.Knee.Lat			L.Knee.Med			R.Knee.Med			L.Thigh.Upper			R.Thigh.Upper			L.ASIS			R.ASIS			V.Sacral			L.Acromium			R.Acromium			C7			L.Elbow			R.Elbow			L.Wrist.Lat			R.Wrist.Lat
		X1	Y1	Z1	X2	Y2	Z2	X3	Y3	Z3	X4	Y4	Z4	X5	Y5	Z5	X6	Y6	Z6	X7	Y7	Z7	X8	Y8	Z8	X9	Y9	Z9	X10	Y10	Z10	X11	Y11	Z11	X12	Y12	Z12	X13	Y13	Z13	X14	Y14	Z14	X15	Y15	Z15	X16	Y16	Z16	X17	Y17	Z17	X18	Y18	Z18	X19	Y19	Z19	X20	Y20	Z20	X21	Y21	Z21	X22	Y22	Z22	X23	Y23	Z23	X24	Y24	Z24

62	0.244	-1.4763276	0.044011419	-0.13313838	-0.67589023	0.041461475	0.054432486	-1.5015958	0.17330311	-0.17299812	-0.81451617	0.053744894	0.088718824	-1.4737315	0.17576479	-0.094731932	-0.79909087	0.080867364	0.005819743	-1.5554673	0.21363593	-0.12326495	-0.86526856	0.029175831	0.041381407	-1.1991732	0.41656895	-0.18647596	-0.81919396	0.45270458	0.11292757	-1.1868417	0.37333952	-0.074357577	-0.82465233	0.46188558	-0.013994816	-1.0779321	0.77727329	-0.20858181	-0.96948894	0.84140182	0.16746562	-0.9868754	0.87656155	-0.15923558	-0.92753824	0.91627669	0.075971415	-1.1507257	0.91586086	0.00090736835	-0.9910609	1.3727347	-0.17841986	-1.0383555	1.3684115	0.1368893	-1.0925768	1.3967495	-0.032800251	-1.0545856	1.0251145	-0.2330473	-1.2225054	1.0771846	0.15604957	-0.83166098	0.91305925	-0.20125373	-1.2136501	0.86128191	0.26454576
63	0.248	-1.4729765	0.045905379	-0.13352492	-0.67561469	0.041157646	0.054203622	-1.4926421	0.17648686	-0.173351	-0.81429264	0.053745115	0.088615156	-1.4645482	0.17795581	-0.094962974	-0.79887719	0.08066143	0.005718599	-1.5440917	0.21889744	-0.12365647	-0.86516783	0.029225881	0.041430227	-1.1879112	0.41525296	-0.18654358	-0.8142137	0.45207231	0.11306495	-1.1747365	0.37092207	-0.074823031	-0.81998205	0.46178844	-0.013581632	-1.0701101	0.77636874	-0.20756188	-0.96250705	0.84257928	0.16819044	-0.97986707	0.87660513	-0.15786657	-0.9205424	0.91710232	0.076933052	-1.1439947	0.91670848	0.0013968522	-0.98512787	1.3735916	-0.17724958	-1.032186	1.3690102	0.13801577	-1.0864302	1.3971841	-0.031702995	-1.0491841	1.0262905	-0.2321335	-1.2151001	1.0774768	0.15691504	-0.82732666	0.91252453	-0.20071614	-1.2066265	0.8615536	0.26549574
64	0.252	-1.4693951	0.047884902	-0.13394012	-0.67538238	0.040907365	0.053959647	-1.4830016	0.17987017	-0.17369194	-0.81407057	0.053744977	0.088519136	-1.4554386	0.18018908	-0.09508605	-0.79871699	0.080501097	0.0056210178	-1.5318893	0.22440074	-0.12482481	-0.86508355	0.029264296	0.041476322	-1.1765583	0.41393311	-0.18658286	-0.80959825	0.45151403	0.11330803	-1.1625823	0.36854536	-0.075235837	-0.81529774	0.46156969	-0.013188021	-1.0623145	0.77548763	-0.20655148	-0.9556667	0.84366873	0.16893897	-0.97292857	0.87668516	-0.15657504	-0.91364426	0.91789553	0.07784426	-1.1376178	0.91786761	0.002300517	-0.97922517	1.3744302	-0.17614347	-1.0259714	1.3695903	0.13912703	-1.0803491	1.3976186	-0.030590379	-1.0438356	1.0274685	-0.23133113	-1.2076988	1.0777425	0.15781579	-0.82301214	0.91196612	-0.2002339	-1.1994886	0.86176724	0.26646045
65	0.256	-1.4655239	0.049934294	-0.13437135	-0.6751758	0.040688693	0.053871923	-1.4731281	0.18334944	-0.17393942	-0.8138771	0.053736947	0.088444235	-1.4461555	0.18252912	-0.095177275	-0.79853279	0.08036326	0.0055479615	-1.5192653	0.22988646	-0.12617662	-0.86501488	0.029292628	0.04149483	-1.165097	0.41263409	-0.18661064	-0.8052324	0.45103017	0.11361478	-1.150346	0.36629618	-0.075560693	-0.81064846	0.46125358	-0.012841693	-1.054565	0.77466068	-0.20556388	-0.94896192	0.84465985	0.16970401	-0.96602275	0.87682396	-0.15534069	-0.90699342	0.91865359	0.078677556	-1.131523	0.91930217	0.0034656633	-0.97332526	1.3752581	-0.17509716	-1.0196769	1.3701651	0.14022822	-1.0743193	1.3980668	-0.029469429	-1.0385635	1.0286578	-0.23068819	-1.2003004	1.0779898	0.15876016	-0.81867989	0.91139997	-0.19981412	-1.1922186	0.86194147	0.2674441
66	0.26	-1.4612763	0.052070828	-0.13483928	-0.675006	0.04050128	0.053943797	-1.4632368	0.1868152	-0.17407917	-0.81375206	0.053711992	0.088405896	-1.4366055	0.18499953	-0.095236804	-0.79831001	0.080232007	0.0055106072	-1.5065701	0.23508133	-0.12707602	-0.8649719	0.029309081	0.041496391	-1.1535079	0.41138699	-0.18664839	-0.8010551	0.45062701	0.11394741	-1.1380167	0.36425787	-0.075758572	-0.80608469	0.4608555	-0.0125654	-1.0468587	0.77391562	-0.20461503	-0.94237124	0.84556747	0.17048588	-0.95914764	0.87703618	-0.15417065	-0.90059237	0.91937481	0.079436286	-1.1254504	0.92073618	0.0045660261	-0.96742146	1.3760871	-0.17410689	-1.0132788	1.3707395	0.14133041	-1.06832	1.3985375	-0.02834964	-1.0333697	1.0298546	-0.23019836	-1.1929019	1.0782143	0.15975024	-0.81433317	0.91083144	-0.19946717	-1.1848302	0.86207297	0.26844022
67	0.264	-1.456541	0.054345685	-0.13538065	-0.67488234	0.040344883	0.054063741	-1.4532749	0.19017291	-0.17413683	-0.81371244	0.053668871	0.088406365	-1.4268296	0.18755794	-0.095225708	-0.79808543	0.080108916	0.0055020663	-1.4939143	0.23987107	-0.12741302	-0.86496293	0.029313704	0.04150594	-1.1417853	0.41021561	-0.18669175	-0.79704521	0.45030416	0.11428029	-1.1255856	0.36249973	-0.075817829	-0.80163028	0.46039562	-0.012371304	-1.0391754	0.77327659	-0.20371264	-0.93586791	0.84641963	0.17128745	-0.95233609	0.87732345	-0.15308762	-0.89430401	0.92006261	0.080142613	-1.1191584	0.92185899	0.0053486299	-0.96152292	1.3769302	-0.17317716	-1.0067433	1.3713101	0.14244226	-1.0623317	1.3990435	-0.027228488	-1.0282215	1.0310504	-0.22977019	-1.1855005	1.0784065	0.16078507	-0.80999476	0.91025521	-0.1991988	-1.1773783	0.86212591	0.26943167
68	0.268	-1.4511951	0.056830668	-0.13600556	-0.67479398	0.040212946	0.054123932	-1.4431286	0.19335571	-0.17413107	-0.81374343	0.053619648	0.08843171	-1.4168692	0.19013234	-0.095127748	-0.79789809	0.080008195	0.0055026941	-1.4813491	0.24426278	-0.1274373	-0.86498564	0.029311167	0.041535775	-1.1299476	0.40913067	-0.18671891	-0.79321371	0.45005079	0.11461013	-1.1130648	0.36107629	-0.075748396	-0.79729105	0.45990538	-0.012247147	-1.0315014	0.77276384	-0.20285583	-0.92944574	0.84722062	0.17208754	-0.9456205	0.87768963	-0.15210865	-0.88799292	0.92072776	0.080810277	-1.1126336	0.92258537	0.0058421788	-0.95563526	1.3777952	-0.17231472	-1.000051	1.3718708	0.14355171	-1.0563389	1.3996068	-0.026093136	-1.0230769	1.0322384	-0.22929529	-1.1780884	1.0785589	0.16186889	-0.80568567	0.90966461	-0.19901191	-1.169934	0.86205857	0.27039679
69	0.272	-1.4451352	0.059585976	-0.1366564	-0.67471653	0.040098303	0.054095233	-1.4327505	0.19635358	-0.17406504	-0.81381262	0.0535848	0.088463079	-1.4067185	0.19266806	-0.094950675	-0.7977468	0.079940091	0.005492657	-1.469011	0.2482955	-0.12734253	-0.86502636	0.029309255	0.041575334	-1.1180232	0.40813296	-0.18672302	-0.78958115	0.44986005	0.11494117	-1.100533	0.36001723	-0.075560338	-0.79308721	0.4594197	-0.012158742	-1.0238417	0.77239352	-0.20205153	-0.92311937	0.84795515	0.17284956	-0.93900488	0.87814986	-0.15123504	-0.88163025	0.92138188	0.08143747	-1.1060271	0.92305005	0.0062598817	-0.94975204	1.3786805	-0.17152157	-0.99325143	1.3724204	0.14461724	-1.0503287	1.4002512	-0.024934342	-1.0179243	1.0334215	-0.22874087	-1.1706294	1.078672	0.16303568	-0.80141525	0.90906255	-0.19890701	-1.1625113	0.86186425	0.27132005
